<?xml version="1.0" encoding="UTF-8"?>
<!DOCTYPE svg PUBLIC "-//W3C//DTD SVG 1.1//EN" "http://www.w3.org/Graphics/SVG/1.1/DTD/svg11.dtd">
<svg version="1.1" id="Layer_1" xmlns="http://www.w3.org/2000/svg" xmlns:xlink="http://www.w3.org/1999/xlink" x="0px" y="0px" viewBox="0 20.5 60 19" enable-background="new 0 20.5 60 19" xml:space="preserve">
<path fill="#ffffff" d="M22.3,34.2h1c0.1,0,0.2-0.1,0.2-0.2v-2.4h3.2c0.1,0,0.2-0.1,0.2-0.2v-0.9c0-0.1-0.1-0.2-0.2-0.2h-3.2v-2.2  h4.2c0.1,0,0.2-0.1,0.2-0.2V27c0-0.1-0.1-0.2-0.2-0.2h-4.5c-0.6,0-1,0.5-1,1.1V34C22,34.1,22.1,34.2,22.3,34.2z"/>
<path fill="#ffffff" d="M30.9,34.2h1c0.1,0,0.2-0.1,0.2-0.2v-7c0-0.1-0.1-0.2-0.2-0.2h-1c-0.1,0-0.2,0.1-0.2,0.2v7  C30.7,34.1,30.8,34.2,30.9,34.2z"/>
<path fill="#ffffff" d="M55.8,26.8h-1c-0.1,0-0.2,0.1-0.2,0.2v6.2c0,0.5,0.4,1,1,1h4.2c0.1,0,0.2-0.1,0.2-0.2v-0.9  c0-0.1-0.1-0.2-0.2-0.2h-3.7V27C56.1,26.9,56,26.8,55.8,26.8z"/>
<path fill="#ffffff" d="M40.5,32l-3.3-5c-0.1-0.2-0.3-0.3-0.5-0.3h-1c-0.1,0-0.2,0.1-0.2,0.2v7c0,0.1,0.1,0.2,0.2,0.2h1  c0.1,0,0.2-0.1,0.2-0.2V29l3.3,4.9c0.1,0.2,0.3,0.3,0.5,0.3h1c0.1,0,0.2-0.1,0.2-0.2v-7c0-0.1-0.1-0.2-0.2-0.2h-1  c-0.1,0-0.2,0.1-0.2,0.2V32L40.5,32z"/>
<path fill="#ffffff" d="M52.1,33.9l-3.2-7c0-0.1-0.1-0.1-0.2-0.1H48c-0.1,0-0.2,0-0.2,0.1l-3.2,7c-0.1,0.1,0,0.3,0.2,0.3h1  c0.1,0,0.2,0,0.2-0.1l0.7-1.6H50l0.7,1.6c0,0.1,0.1,0.1,0.2,0.1h1C52,34.2,52.1,34,52.1,33.9z M47.3,31.1l1-2.3l1,2.3H47.3z"/>
<path fill="#ffffff" d="M15,26.3l-0.4-0.4c-0.6-0.6-1.6-0.6-2.2,0c-0.6,0.6-0.6,1.4,0,2.1c0.6,0.6,1.6,1.6,1.6,1.6l1-1  C15.6,27.8,15.6,26.9,15,26.3z"/>
<path fill="#ffffff" d="M11.5,37.3l0.4-0.4c0.6-0.6,0.6-1.6,0-2.2c-0.6-0.6-1.4-0.6-2.1,0c-0.6,0.6-1.6,1.6-1.6,1.6l1,1  C9.9,37.9,10.9,37.9,11.5,37.3z"/>
<path fill="#ffffff" d="M13.1,35.6l1.9-1.9c0.6-0.6,0.6-1.6,0-2.2c0,0-2.7-2.7-3.2-3.2c-0.7-0.7-0.6-1.3-0.6-1.3l-0.4,0.4  c-1.4,1.4-1.4,3.7,0,5.1c0.1,0.1,1.7,1.7,1.7,1.7C13.1,34.8,13.1,35.6,13.1,35.6z"/>
<path fill="#ffffff" d="M2.1,35.4L4,37.3c0.6,0.6,1.6,0.6,2.2,0c0,0,2.7-2.7,3.2-3.2c0.7-0.7,1.3-0.6,1.3-0.6l-0.4-0.4  c-1.4-1.4-3.7-1.4-5.1,0c-0.1,0.1-1.7,1.7-1.7,1.7C2.9,35.4,2.1,35.4,2.1,35.4z"/>
<path fill="#ffffff" d="M0.5,33.8l0.4,0.4c0.6,0.6,1.6,0.6,2.2,0s0.6-1.4,0-2.1c-0.6-0.6-1.6-1.6-1.6-1.6l-1,1  C-0.2,32.2-0.2,33.1,0.5,33.8z"/>
<path fill="#ffffff" d="M4,22.7l-0.4,0.4c-0.6,0.6-0.6,1.6,0,2.2C4.2,26,5,26,5.7,25.4c0.6-0.6,1.6-1.6,1.6-1.6l-1-1  C5.6,22.1,4.6,22.1,4,22.7z"/>
<path fill="#ffffff" d="M2.4,24.4l-1.9,1.9c-0.6,0.6-0.6,1.6,0,2.2c0,0,2.7,2.7,3.2,3.2C4.4,32.4,4.3,33,4.3,33l0.4-0.4  c1.4-1.4,1.4-3.7,0-5.1C4.6,27.4,3,25.8,3,25.8C2.4,25.2,2.3,24.4,2.4,24.4z"/>
<path fill="#ffffff" d="M13.4,24.6l-1.9-1.9c-0.6-0.6-1.6-0.6-2.2,0c0,0-2.7,2.7-3.2,3.2c-0.7,0.7-1.3,0.6-1.3,0.6l0.4,0.4  c1.4,1.4,3.7,1.4,5.1,0c0.1-0.1,1.7-1.7,1.7-1.7C12.6,24.7,13.3,24.6,13.4,24.6z"/>
</svg>
